<svg width="27" height="27" viewBox="0 0 27 27" fill="none" xmlns="http://www.w3.org/2000/svg">
<path d="M10.4799 20.9598C16.2678 20.9598 20.9598 16.2678 20.9598 10.4799C20.9598 4.69201 16.2678 0 10.4799 0C4.69201 0 0 4.69201 0 10.4799C0 16.2678 4.69201 20.9598 10.4799 20.9598Z" fill="#252525"/>
<path d="M17.2807 18.1908L18.2967 17.1748L19.055 17.9331L18.039 18.9491L17.2807 18.1908Z" fill="#504F4F"/>
<path d="M20.4685 18.9418L19.8643 18.462L18.5589 19.7651L19.0294 20.3624C20.1364 21.7624 22.4174 24.0595 23.8012 25.1826L24.7952 25.9898C25.1527 26.2989 25.6923 26.2874 26.0337 25.9483C26.3727 25.6093 26.3842 25.0696 26.0752 24.7098L25.2611 23.7043C24.1471 22.3228 21.8593 20.0465 20.4685 18.9418ZM25.6416 25.5378C25.4963 25.6831 25.2634 25.6831 25.1181 25.5378C24.9728 25.3925 24.9728 25.1596 25.1181 25.0143C25.2634 24.869 25.4963 24.869 25.6416 25.0143C25.7869 25.1596 25.7869 25.3925 25.6416 25.5378Z" fill="url(#paint0_radial_24_12)"/>
<path d="M18.9579 17.814L17.9085 18.8633C17.8393 18.9325 17.8393 19.0455 17.9085 19.1147L18.5635 19.7697L19.8643 18.469L19.2093 17.814C19.1378 17.7448 19.0271 17.7448 18.9579 17.814Z" fill="#333333"/>
<path d="M10.4799 0.25832C16.1165 0.25832 20.7015 4.84327 20.7015 10.4799C20.7015 16.1165 16.1165 20.7015 10.4799 20.7015C4.84326 20.7015 0.258307 16.1165 0.258307 10.4799C0.258307 4.84327 4.84326 0.25832 10.4799 0.25832ZM10.4799 0.00231934C4.69335 0.00231934 0 4.69336 0 10.4822C0 16.2711 4.69104 20.9621 10.4799 20.9621C16.2687 20.9621 20.9598 16.2711 20.9598 10.4822C20.9598 4.69336 16.2664 0.00231934 10.4799 0.00231934Z" fill="#595858"/>
<path d="M10.4799 18.8472C15.101 18.8472 18.8472 15.101 18.8472 10.4799C18.8472 5.85875 15.101 2.11258 10.4799 2.11258C5.85876 2.11258 2.11259 5.85875 2.11259 10.4799C2.11259 15.101 5.85876 18.8472 10.4799 18.8472Z" fill="#575757"/>
<path d="M10.9804 4.00837C9.76263 3.78927 8.54951 4.33356 7.43325 4.86631C6.37926 5.36678 5.25609 5.93183 4.70719 6.96045C4.1283 8.05134 4.34279 9.37516 4.13983 10.5929C4.0176 11.3286 3.74545 12.1197 4.07756 12.7862C4.34048 13.312 4.92398 13.6165 5.20996 14.1308C5.43137 14.5252 5.45213 15.0003 5.59281 15.4292C5.79115 16.0358 6.24319 16.5547 6.81516 16.8361C7.38712 17.1175 8.07441 17.1567 8.67635 16.9422C9.24601 16.7392 9.75802 16.3172 10.3623 16.3126C10.782 16.3102 11.1741 16.5109 11.5869 16.5778C12.2327 16.6839 12.8969 16.4509 13.4274 16.0704C13.9578 15.6899 14.3706 15.1686 14.7512 14.6359C15.1294 14.1031 15.4823 13.5519 15.8328 13.0007C16.165 12.4818 16.4994 11.9559 16.7139 11.3793C17.1636 10.1778 17.0552 8.78244 16.4279 7.66387C15.8282 6.59605 14.9034 6.03331 13.8079 5.58127C12.7839 5.16152 12.1474 4.21824 10.9804 4.00837Z" fill="url(#paint1_radial_24_12)"/>
<path opacity="0.43" d="M10.4868 6.74597C12.7216 6.74597 14.1608 8.09747 14.1608 10.3323C14.1608 12.5671 13.0676 13.4989 10.8812 13.9624C8.60717 14.4444 6.6837 12.5233 6.6837 10.2885C6.6837 8.05365 8.252 6.74597 10.4868 6.74597Z" fill="#E6DDD6"/>
<path d="M10.5076 13.6119C12.3303 13.6119 13.8079 12.1343 13.8079 10.3115C13.8079 8.48881 12.3303 7.0112 10.5076 7.0112C8.68485 7.0112 7.20724 8.48881 7.20724 10.3115C7.20724 12.1343 8.68485 13.6119 10.5076 13.6119Z" fill="url(#paint2_radial_24_12)"/>
<defs>
<radialGradient id="paint0_radial_24_12" cx="0" cy="0" r="1" gradientUnits="userSpaceOnUse" gradientTransform="translate(22.6219 22.5312) rotate(-135.583) scale(5.13292 1.02971)">
<stop/>
<stop offset="1" stop-color="#504F4F"/>
</radialGradient>
<radialGradient id="paint1_radial_24_12" cx="0" cy="0" r="1" gradientUnits="userSpaceOnUse" gradientTransform="translate(10.4534 10.5188) rotate(90) scale(6.54756)">
<stop stop-color="white"/>
<stop offset="0.4787" stop-color="#FDFDFD"/>
<stop offset="0.6903" stop-color="#F8F6F6"/>
<stop offset="0.8488" stop-color="#EEEBE9"/>
<stop offset="0.9808" stop-color="#E1DAD7"/>
<stop offset="1" stop-color="#DED7D4"/>
</radialGradient>
<radialGradient id="paint2_radial_24_12" cx="0" cy="0" r="1" gradientUnits="userSpaceOnUse" gradientTransform="translate(8.59495 9.34288) scale(4.32803)">
<stop offset="0.0049261" stop-color="#FDBF00"/>
<stop offset="0.167" stop-color="#FCB70B"/>
<stop offset="0.5553" stop-color="#FBA822"/>
<stop offset="0.8029" stop-color="#FAA32A"/>
<stop offset="1" stop-color="#FC923B"/>
</radialGradient>
</defs>
</svg>
